<?xml version="1.0" encoding="utf-8"?>
<!-- Generator: Adobe Adobe Illustrator 24.2.0, SVG Export Plug-In . SVG Version: 6.00 Build 0)  -->
<svg version="1.1" id="Calque_1" xmlns="http://www.w3.org/2000/svg" xmlns:xlink="http://www.w3.org/1999/xlink" x="0px" y="0px"
	 width="1920px" height="1080px" viewBox="0 0 1920 1080" style="enable-background:new 0 0 1920 1080;" xml:space="preserve">
<style type="text/css">
	.st0{fill:#FFFFFF;stroke:#000000;stroke-miterlimit:10;}
	.st1{font-family:'SourceSansPro-Regular';}
	.st2{font-size:48px;}
	.st3{fill:none;}
	.st4{font-size:38.875px;}
</style>
<circle class="st0" cx="391.03" cy="305.76" r="158.5"/>
<circle class="st0" cx="391.03" cy="305.76" r="158.5"/>
<circle class="st0" cx="762.35" cy="705" r="165"/>
<path class="st0" d="M543.99,352.56c69.81-9.66,82.4-5.62,99.48,18.09s30.59,95.19,59.29,93.95s85.54,8.44,94.46,28.14
	c8.92,19.7,0.5,49.74,0.5,49.74"/>
<path class="st0" d="M664.13,416.64l12.65-26.86L664.13,416.64z"/>
<line class="st0" x1="633.39" y1="402.61" x2="664.69" y2="416.27"/>
<text transform="matrix(1 0 0 1 268.0812 316.0756)" class="st1 st2">Les vecteurs</text>
<rect x="619.28" y="687" class="st3" width="286.14" height="36"/>
<text transform="matrix(1 0 0 1 619.2819 714.6792)" class="st1 st4">Espaces vectoriels</text>
</svg>
